<svg xmlns="http://www.w3.org/2000/svg" viewBox="0 0 96 96">
  <defs>
    <radialGradient id="rim-50" cx="35%" cy="28%" r="85%">
      <stop offset="0%" stop-color="#FFF0B8"/>
      <stop offset="45%" stop-color="hsl(41, 74%, 58%)"/>
      <stop offset="100%" stop-color="hsl(33, 70%, 28%)"/>
    </radialGradient>
    <radialGradient id="core-50" cx="50%" cy="36%" r="78%">
      <stop offset="0%" stop-color="hsl(41, 78%, 65%)"/>
      <stop offset="58%" stop-color="hsl(41, 72%, 46%)"/>
      <stop offset="100%" stop-color="hsl(35, 68%, 27%)"/>
    </radialGradient>
  </defs>
  <circle cx="48" cy="48" r="47" fill="url(#rim-50)"/>
  <circle cx="48" cy="48" r="45.4" fill="none" stroke="#DC3030" stroke-width="2.4"/>
  <circle cx="48" cy="48" r="40" fill="none" stroke="hsl(31, 66%, 24%)" stroke-width="0.8" opacity="0.7"/>
  <g>
    <line x1="48" y1="48" x2="13.2" y2="57.3" stroke="hsl(41, 70%, 38%)" stroke-width="1" opacity="0.35"/>
    <line x1="48" y1="48" x2="13.2" y2="38.7" stroke="hsl(41, 70%, 38%)" stroke-width="1" opacity="0.35"/>
    <line x1="48" y1="48" x2="22.5" y2="22.5" stroke="hsl(41, 70%, 38%)" stroke-width="1" opacity="0.35"/>
    <line x1="48" y1="48" x2="38.7" y2="13.2" stroke="hsl(41, 70%, 38%)" stroke-width="1" opacity="0.35"/>
    <line x1="48" y1="48" x2="57.3" y2="13.2" stroke="hsl(41, 70%, 38%)" stroke-width="1" opacity="0.35"/>
    <line x1="48" y1="48" x2="73.5" y2="22.5" stroke="hsl(41, 70%, 38%)" stroke-width="1" opacity="0.35"/>
    <line x1="48" y1="48" x2="82.8" y2="38.7" stroke="hsl(41, 70%, 38%)" stroke-width="1" opacity="0.35"/>
    <line x1="48" y1="48" x2="82.8" y2="57.3" stroke="hsl(41, 70%, 38%)" stroke-width="1" opacity="0.35"/>
    <line x1="48" y1="48" x2="73.5" y2="73.5" stroke="hsl(41, 70%, 38%)" stroke-width="1" opacity="0.35"/>
    <line x1="48" y1="48" x2="57.3" y2="82.8" stroke="hsl(41, 70%, 38%)" stroke-width="1" opacity="0.35"/>
    <line x1="48" y1="48" x2="38.7" y2="82.8" stroke="hsl(41, 70%, 38%)" stroke-width="1" opacity="0.35"/>
    <line x1="48" y1="48" x2="22.5" y2="73.5" stroke="hsl(41, 70%, 38%)" stroke-width="1" opacity="0.35"/>
  </g>
  <circle cx="48" cy="48" r="34.5" fill="url(#core-50)" stroke="hsl(31, 64%, 22%)" stroke-width="1.1"/>
  <g opacity="0.85">
    <ellipse cx="41.1" cy="77.5" rx="5.2" ry="2.1" fill="#B98A22" opacity="0.9" transform="rotate(70 41.1 77.5)"/><ellipse cx="35.3" cy="76.3" rx="5.2" ry="2.1" fill="#B98A22" opacity="0.9" transform="rotate(54 35.3 76.3)"/><ellipse cx="29.8" cy="74.3" rx="5.2" ry="2.1" fill="#B98A22" opacity="0.9" transform="rotate(38 29.8 74.3)"/><ellipse cx="24.8" cy="71.8" rx="5.2" ry="2.1" fill="#B98A22" opacity="0.9" transform="rotate(22 24.8 71.8)"/><ellipse cx="20.3" cy="68.6" rx="5.2" ry="2.1" fill="#B98A22" opacity="0.9" transform="rotate(6 20.3 68.6)"/><ellipse cx="16.6" cy="64.9" rx="5.2" ry="2.1" fill="#B98A22" opacity="0.9" transform="rotate(-10 16.6 64.9)"/>
    <ellipse cx="54.9" cy="77.5" rx="5.2" ry="2.1" fill="#B98A22" opacity="0.9" transform="rotate(-70 54.9 77.5)"/><ellipse cx="60.7" cy="76.3" rx="5.2" ry="2.1" fill="#B98A22" opacity="0.9" transform="rotate(-54 60.7 76.3)"/><ellipse cx="66.2" cy="74.3" rx="5.2" ry="2.1" fill="#B98A22" opacity="0.9" transform="rotate(-38 66.2 74.3)"/><ellipse cx="71.2" cy="71.8" rx="5.2" ry="2.1" fill="#B98A22" opacity="0.9" transform="rotate(-22 71.2 71.8)"/><ellipse cx="75.7" cy="68.6" rx="5.2" ry="2.1" fill="#B98A22" opacity="0.9" transform="rotate(-6 75.7 68.6)"/><ellipse cx="79.4" cy="64.9" rx="5.2" ry="2.1" fill="#B98A22" opacity="0.9" transform="rotate(10 79.4 64.9)"/>
  </g>
  <text x="48" y="51" text-anchor="middle" dominant-baseline="central" font-size="32" font-family="'Noto Color Emoji','Apple Color Emoji','Segoe UI Emoji',sans-serif">💍</text>
  <path d="M 38.67 83.69 Q 39.05 85.42 40.79 85.80 Q 39.05 86.18 38.67 87.92 Q 38.29 86.18 36.56 85.80 Q 38.29 85.42 38.67 83.69 Z" fill="#FFF3C4" opacity="0.86"/>
  <path d="M 45.63 6.66 Q 46.16 9.06 48.56 9.59 Q 46.16 10.11 45.63 12.52 Q 45.10 10.11 42.70 9.59 Q 45.10 9.06 45.63 6.66 Z" fill="#FFF3C4" opacity="0.79"/>
  <path d="M 40.26 83.81 Q 40.78 86.21 43.19 86.73 Q 40.78 87.26 40.26 89.66 Q 39.73 87.26 37.33 86.73 Q 39.73 86.21 40.26 83.81 Z" fill="#FFF3C4" opacity="0.58"/>
  <path d="M 27.86 12.44 Q 28.26 14.26 30.08 14.66 Q 28.26 15.06 27.86 16.88 Q 27.46 15.06 25.64 14.66 Q 27.46 14.26 27.86 12.44 Z" fill="#FFF3C4" opacity="0.52"/>
</svg>
