<svg xmlns="http://www.w3.org/2000/svg" viewBox="0 0 96 96">
  <defs>
    <radialGradient id="rim-55" cx="35%" cy="28%" r="85%">
      <stop offset="0%" stop-color="#FFF0B8"/>
      <stop offset="45%" stop-color="hsl(53, 74%, 58%)"/>
      <stop offset="100%" stop-color="hsl(45, 70%, 28%)"/>
    </radialGradient>
    <radialGradient id="core-55" cx="50%" cy="36%" r="78%">
      <stop offset="0%" stop-color="hsl(53, 78%, 71%)"/>
      <stop offset="58%" stop-color="hsl(53, 72%, 46%)"/>
      <stop offset="100%" stop-color="hsl(47, 68%, 27%)"/>
    </radialGradient>
  </defs>
  <circle cx="48" cy="48" r="47" fill="url(#rim-55)"/>
  <circle cx="48" cy="48" r="45.4" fill="none" stroke="#4A96FF" stroke-width="2.4"/>
  <circle cx="48" cy="48" r="40" fill="none" stroke="hsl(43, 66%, 24%)" stroke-width="0.8" opacity="0.7"/>
  <g>
    <line x1="48" y1="48" x2="34.5" y2="81.4" stroke="hsl(53, 70%, 38%)" stroke-width="1" opacity="0.35"/>
    <line x1="48" y1="48" x2="24.9" y2="75.6" stroke="hsl(53, 70%, 38%)" stroke-width="1" opacity="0.35"/>
    <line x1="48" y1="48" x2="17.5" y2="67.1" stroke="hsl(53, 70%, 38%)" stroke-width="1" opacity="0.35"/>
    <line x1="48" y1="48" x2="13.1" y2="56.7" stroke="hsl(53, 70%, 38%)" stroke-width="1" opacity="0.35"/>
    <line x1="48" y1="48" x2="12.1" y2="45.5" stroke="hsl(53, 70%, 38%)" stroke-width="1" opacity="0.35"/>
    <line x1="48" y1="48" x2="14.6" y2="34.5" stroke="hsl(53, 70%, 38%)" stroke-width="1" opacity="0.35"/>
    <line x1="48" y1="48" x2="20.4" y2="24.9" stroke="hsl(53, 70%, 38%)" stroke-width="1" opacity="0.35"/>
    <line x1="48" y1="48" x2="28.9" y2="17.5" stroke="hsl(53, 70%, 38%)" stroke-width="1" opacity="0.35"/>
    <line x1="48" y1="48" x2="39.3" y2="13.1" stroke="hsl(53, 70%, 38%)" stroke-width="1" opacity="0.35"/>
    <line x1="48" y1="48" x2="50.5" y2="12.1" stroke="hsl(53, 70%, 38%)" stroke-width="1" opacity="0.35"/>
    <line x1="48" y1="48" x2="61.5" y2="14.6" stroke="hsl(53, 70%, 38%)" stroke-width="1" opacity="0.35"/>
    <line x1="48" y1="48" x2="71.1" y2="20.4" stroke="hsl(53, 70%, 38%)" stroke-width="1" opacity="0.35"/>
    <line x1="48" y1="48" x2="78.5" y2="28.9" stroke="hsl(53, 70%, 38%)" stroke-width="1" opacity="0.35"/>
    <line x1="48" y1="48" x2="82.9" y2="39.3" stroke="hsl(53, 70%, 38%)" stroke-width="1" opacity="0.35"/>
    <line x1="48" y1="48" x2="83.9" y2="50.5" stroke="hsl(53, 70%, 38%)" stroke-width="1" opacity="0.35"/>
    <line x1="48" y1="48" x2="81.4" y2="61.5" stroke="hsl(53, 70%, 38%)" stroke-width="1" opacity="0.35"/>
    <line x1="48" y1="48" x2="75.6" y2="71.1" stroke="hsl(53, 70%, 38%)" stroke-width="1" opacity="0.35"/>
    <line x1="48" y1="48" x2="67.1" y2="78.5" stroke="hsl(53, 70%, 38%)" stroke-width="1" opacity="0.35"/>
    <line x1="48" y1="48" x2="56.7" y2="82.9" stroke="hsl(53, 70%, 38%)" stroke-width="1" opacity="0.35"/>
    <line x1="48" y1="48" x2="45.5" y2="83.9" stroke="hsl(53, 70%, 38%)" stroke-width="1" opacity="0.35"/>
  </g>
  <circle cx="48" cy="48" r="34.5" fill="url(#core-55)" stroke="hsl(43, 64%, 22%)" stroke-width="1.1"/>
  <g opacity="0.85">
    <ellipse cx="41.1" cy="77.5" rx="5.2" ry="2.1" fill="#B98A22" opacity="0.9" transform="rotate(70 41.1 77.5)"/><ellipse cx="35.3" cy="76.3" rx="5.2" ry="2.1" fill="#B98A22" opacity="0.9" transform="rotate(54 35.3 76.3)"/><ellipse cx="29.8" cy="74.3" rx="5.2" ry="2.1" fill="#B98A22" opacity="0.9" transform="rotate(38 29.8 74.3)"/><ellipse cx="24.8" cy="71.8" rx="5.2" ry="2.1" fill="#B98A22" opacity="0.9" transform="rotate(22 24.8 71.8)"/><ellipse cx="20.3" cy="68.6" rx="5.2" ry="2.1" fill="#B98A22" opacity="0.9" transform="rotate(6 20.3 68.6)"/><ellipse cx="16.6" cy="64.9" rx="5.2" ry="2.1" fill="#B98A22" opacity="0.9" transform="rotate(-10 16.6 64.9)"/>
    <ellipse cx="54.9" cy="77.5" rx="5.2" ry="2.1" fill="#B98A22" opacity="0.9" transform="rotate(-70 54.9 77.5)"/><ellipse cx="60.7" cy="76.3" rx="5.2" ry="2.1" fill="#B98A22" opacity="0.9" transform="rotate(-54 60.7 76.3)"/><ellipse cx="66.2" cy="74.3" rx="5.2" ry="2.1" fill="#B98A22" opacity="0.9" transform="rotate(-38 66.2 74.3)"/><ellipse cx="71.2" cy="71.8" rx="5.2" ry="2.1" fill="#B98A22" opacity="0.9" transform="rotate(-22 71.2 71.8)"/><ellipse cx="75.7" cy="68.6" rx="5.2" ry="2.1" fill="#B98A22" opacity="0.9" transform="rotate(-6 75.7 68.6)"/><ellipse cx="79.4" cy="64.9" rx="5.2" ry="2.1" fill="#B98A22" opacity="0.9" transform="rotate(10 79.4 64.9)"/>
  </g>
  <text x="48" y="51" text-anchor="middle" dominant-baseline="central" font-size="32" font-family="'Noto Color Emoji','Apple Color Emoji','Segoe UI Emoji',sans-serif">🎿</text>
  <path d="M 12.18 66.54 Q 12.67 68.78 14.92 69.27 Q 12.67 69.77 12.18 72.01 Q 11.69 69.77 9.45 69.27 Q 11.69 68.78 12.18 66.54 Z" fill="#FFF3C4" opacity="0.61"/>
  <path d="M 69.17 10.80 Q 69.58 12.65 71.43 13.06 Q 69.58 13.47 69.17 15.32 Q 68.76 13.47 66.91 13.06 Q 68.76 12.65 69.17 10.80 Z" fill="#FFF3C4" opacity="0.60"/>
  <path d="M 35.69 5.87 Q 36.13 7.89 38.15 8.33 Q 36.13 8.77 35.69 10.79 Q 35.24 8.77 33.22 8.33 Q 35.24 7.89 35.69 5.87 Z" fill="#FFF3C4" opacity="0.73"/>
  <path d="M 54.63 7.36 Q 55.00 9.08 56.72 9.46 Q 55.00 9.83 54.63 11.55 Q 54.25 9.83 52.53 9.46 Q 54.25 9.08 54.63 7.36 Z" fill="#FFF3C4" opacity="0.59"/>
  <path d="M 87.10 35.80 Q 87.46 37.44 89.10 37.80 Q 87.46 38.16 87.10 39.81 Q 86.74 38.16 85.10 37.80 Q 86.74 37.44 87.10 35.80 Z" fill="#FFF3C4" opacity="0.65"/>
</svg>
