<svg xmlns="http://www.w3.org/2000/svg" viewBox="0 0 96 96">
  <defs>
    <radialGradient id="rim-03" cx="35%" cy="28%" r="85%">
      <stop offset="0%" stop-color="#FFF0B8"/>
      <stop offset="45%" stop-color="hsl(46, 74%, 58%)"/>
      <stop offset="100%" stop-color="hsl(38, 70%, 28%)"/>
    </radialGradient>
    <radialGradient id="core-03" cx="50%" cy="36%" r="78%">
      <stop offset="0%" stop-color="hsl(46, 78%, 69%)"/>
      <stop offset="58%" stop-color="hsl(46, 72%, 46%)"/>
      <stop offset="100%" stop-color="hsl(40, 68%, 27%)"/>
    </radialGradient>
  </defs>
  <circle cx="48" cy="48" r="47" fill="url(#rim-03)"/>
  <circle cx="48" cy="48" r="45.4" fill="none" stroke="#BA55FF" stroke-width="2.4"/>
  <circle cx="48" cy="48" r="40" fill="none" stroke="hsl(36, 66%, 24%)" stroke-width="0.8" opacity="0.7"/>
  <g>
    <line x1="48" y1="48" x2="58.5" y2="13.6" stroke="hsl(46, 70%, 38%)" stroke-width="1" opacity="0.35"/>
    <line x1="48" y1="48" x2="70.9" y2="20.2" stroke="hsl(46, 70%, 38%)" stroke-width="1" opacity="0.35"/>
    <line x1="48" y1="48" x2="79.8" y2="31.1" stroke="hsl(46, 70%, 38%)" stroke-width="1" opacity="0.35"/>
    <line x1="48" y1="48" x2="83.8" y2="44.5" stroke="hsl(46, 70%, 38%)" stroke-width="1" opacity="0.35"/>
    <line x1="48" y1="48" x2="82.4" y2="58.5" stroke="hsl(46, 70%, 38%)" stroke-width="1" opacity="0.35"/>
    <line x1="48" y1="48" x2="75.8" y2="70.9" stroke="hsl(46, 70%, 38%)" stroke-width="1" opacity="0.35"/>
    <line x1="48" y1="48" x2="64.9" y2="79.8" stroke="hsl(46, 70%, 38%)" stroke-width="1" opacity="0.35"/>
    <line x1="48" y1="48" x2="51.5" y2="83.8" stroke="hsl(46, 70%, 38%)" stroke-width="1" opacity="0.35"/>
    <line x1="48" y1="48" x2="37.5" y2="82.4" stroke="hsl(46, 70%, 38%)" stroke-width="1" opacity="0.35"/>
    <line x1="48" y1="48" x2="25.1" y2="75.8" stroke="hsl(46, 70%, 38%)" stroke-width="1" opacity="0.35"/>
    <line x1="48" y1="48" x2="16.2" y2="64.9" stroke="hsl(46, 70%, 38%)" stroke-width="1" opacity="0.35"/>
    <line x1="48" y1="48" x2="12.2" y2="51.5" stroke="hsl(46, 70%, 38%)" stroke-width="1" opacity="0.35"/>
    <line x1="48" y1="48" x2="13.6" y2="37.5" stroke="hsl(46, 70%, 38%)" stroke-width="1" opacity="0.35"/>
    <line x1="48" y1="48" x2="20.2" y2="25.1" stroke="hsl(46, 70%, 38%)" stroke-width="1" opacity="0.35"/>
    <line x1="48" y1="48" x2="31.1" y2="16.2" stroke="hsl(46, 70%, 38%)" stroke-width="1" opacity="0.35"/>
    <line x1="48" y1="48" x2="44.5" y2="12.2" stroke="hsl(46, 70%, 38%)" stroke-width="1" opacity="0.35"/>
  </g>
  <circle cx="48" cy="48" r="34.5" fill="url(#core-03)" stroke="hsl(36, 64%, 22%)" stroke-width="1.1"/>
  <g opacity="0.85">
    <ellipse cx="41.1" cy="77.5" rx="5.2" ry="2.1" fill="#B98A22" opacity="0.9" transform="rotate(70 41.1 77.5)"/><ellipse cx="35.3" cy="76.3" rx="5.2" ry="2.1" fill="#B98A22" opacity="0.9" transform="rotate(54 35.3 76.3)"/><ellipse cx="29.8" cy="74.3" rx="5.2" ry="2.1" fill="#B98A22" opacity="0.9" transform="rotate(38 29.8 74.3)"/><ellipse cx="24.8" cy="71.8" rx="5.2" ry="2.1" fill="#B98A22" opacity="0.9" transform="rotate(22 24.8 71.8)"/><ellipse cx="20.3" cy="68.6" rx="5.2" ry="2.1" fill="#B98A22" opacity="0.9" transform="rotate(6 20.3 68.6)"/><ellipse cx="16.6" cy="64.9" rx="5.2" ry="2.1" fill="#B98A22" opacity="0.9" transform="rotate(-10 16.6 64.9)"/>
    <ellipse cx="54.9" cy="77.5" rx="5.2" ry="2.1" fill="#B98A22" opacity="0.9" transform="rotate(-70 54.9 77.5)"/><ellipse cx="60.7" cy="76.3" rx="5.2" ry="2.1" fill="#B98A22" opacity="0.9" transform="rotate(-54 60.7 76.3)"/><ellipse cx="66.2" cy="74.3" rx="5.2" ry="2.1" fill="#B98A22" opacity="0.9" transform="rotate(-38 66.2 74.3)"/><ellipse cx="71.2" cy="71.8" rx="5.2" ry="2.1" fill="#B98A22" opacity="0.9" transform="rotate(-22 71.2 71.8)"/><ellipse cx="75.7" cy="68.6" rx="5.2" ry="2.1" fill="#B98A22" opacity="0.9" transform="rotate(-6 75.7 68.6)"/><ellipse cx="79.4" cy="64.9" rx="5.2" ry="2.1" fill="#B98A22" opacity="0.9" transform="rotate(10 79.4 64.9)"/>
  </g>
  <text x="48" y="51" text-anchor="middle" dominant-baseline="central" font-size="32" font-family="'Noto Color Emoji','Apple Color Emoji','Segoe UI Emoji',sans-serif">🦾</text>
  <path d="M 10.65 58.90 Q 11.13 61.10 13.33 61.58 Q 11.13 62.06 10.65 64.27 Q 10.16 62.06 7.96 61.58 Q 10.16 61.10 10.65 58.90 Z" fill="#FFF3C4" opacity="0.66"/>
  <path d="M 69.47 11.48 Q 69.97 13.76 72.25 14.27 Q 69.97 14.77 69.47 17.05 Q 68.97 14.77 66.68 14.27 Q 68.97 13.76 69.47 11.48 Z" fill="#FFF3C4" opacity="0.52"/>
  <path d="M 45.92 6.32 Q 46.24 7.79 47.71 8.11 Q 46.24 8.44 45.92 9.91 Q 45.59 8.44 44.12 8.11 Q 45.59 7.79 45.92 6.32 Z" fill="#FFF3C4" opacity="0.51"/>
  <path d="M 40.46 7.18 Q 41.02 9.73 43.58 10.29 Q 41.02 10.85 40.46 13.41 Q 39.90 10.85 37.35 10.29 Q 39.90 9.73 40.46 7.18 Z" fill="#FFF3C4" opacity="0.55"/>
  <path d="M 80.26 22.39 Q 80.67 24.22 82.50 24.62 Q 80.67 25.02 80.26 26.85 Q 79.86 25.02 78.03 24.62 Q 79.86 24.22 80.26 22.39 Z" fill="#FFF3C4" opacity="0.83"/>
</svg>
