<svg xmlns="http://www.w3.org/2000/svg" viewBox="0 0 96 96">
  <defs>
    <radialGradient id="rim-02" cx="35%" cy="28%" r="85%">
      <stop offset="0%" stop-color="#FFF0B8"/>
      <stop offset="45%" stop-color="hsl(55, 74%, 58%)"/>
      <stop offset="100%" stop-color="hsl(47, 70%, 28%)"/>
    </radialGradient>
    <radialGradient id="core-02" cx="50%" cy="36%" r="78%">
      <stop offset="0%" stop-color="hsl(55, 78%, 64%)"/>
      <stop offset="58%" stop-color="hsl(55, 72%, 46%)"/>
      <stop offset="100%" stop-color="hsl(49, 68%, 27%)"/>
    </radialGradient>
  </defs>
  <circle cx="48" cy="48" r="47" fill="url(#rim-02)"/>
  <circle cx="48" cy="48" r="45.4" fill="none" stroke="#4A96FF" stroke-width="2.4"/>
  <circle cx="48" cy="48" r="40" fill="none" stroke="hsl(45, 66%, 24%)" stroke-width="0.8" opacity="0.7"/>
  <g>
    <line x1="48" y1="48" x2="83.8" y2="44.2" stroke="hsl(55, 70%, 38%)" stroke-width="1" opacity="0.35"/>
    <line x1="48" y1="48" x2="83.2" y2="55.5" stroke="hsl(55, 70%, 38%)" stroke-width="1" opacity="0.35"/>
    <line x1="48" y1="48" x2="79.2" y2="66.0" stroke="hsl(55, 70%, 38%)" stroke-width="1" opacity="0.35"/>
    <line x1="48" y1="48" x2="72.1" y2="74.8" stroke="hsl(55, 70%, 38%)" stroke-width="1" opacity="0.35"/>
    <line x1="48" y1="48" x2="62.6" y2="80.9" stroke="hsl(55, 70%, 38%)" stroke-width="1" opacity="0.35"/>
    <line x1="48" y1="48" x2="51.8" y2="83.8" stroke="hsl(55, 70%, 38%)" stroke-width="1" opacity="0.35"/>
    <line x1="48" y1="48" x2="40.5" y2="83.2" stroke="hsl(55, 70%, 38%)" stroke-width="1" opacity="0.35"/>
    <line x1="48" y1="48" x2="30.0" y2="79.2" stroke="hsl(55, 70%, 38%)" stroke-width="1" opacity="0.35"/>
    <line x1="48" y1="48" x2="21.2" y2="72.1" stroke="hsl(55, 70%, 38%)" stroke-width="1" opacity="0.35"/>
    <line x1="48" y1="48" x2="15.1" y2="62.6" stroke="hsl(55, 70%, 38%)" stroke-width="1" opacity="0.35"/>
    <line x1="48" y1="48" x2="12.2" y2="51.8" stroke="hsl(55, 70%, 38%)" stroke-width="1" opacity="0.35"/>
    <line x1="48" y1="48" x2="12.8" y2="40.5" stroke="hsl(55, 70%, 38%)" stroke-width="1" opacity="0.35"/>
    <line x1="48" y1="48" x2="16.8" y2="30.0" stroke="hsl(55, 70%, 38%)" stroke-width="1" opacity="0.35"/>
    <line x1="48" y1="48" x2="23.9" y2="21.2" stroke="hsl(55, 70%, 38%)" stroke-width="1" opacity="0.35"/>
    <line x1="48" y1="48" x2="33.4" y2="15.1" stroke="hsl(55, 70%, 38%)" stroke-width="1" opacity="0.35"/>
    <line x1="48" y1="48" x2="44.2" y2="12.2" stroke="hsl(55, 70%, 38%)" stroke-width="1" opacity="0.35"/>
    <line x1="48" y1="48" x2="55.5" y2="12.8" stroke="hsl(55, 70%, 38%)" stroke-width="1" opacity="0.35"/>
    <line x1="48" y1="48" x2="66.0" y2="16.8" stroke="hsl(55, 70%, 38%)" stroke-width="1" opacity="0.35"/>
    <line x1="48" y1="48" x2="74.8" y2="23.9" stroke="hsl(55, 70%, 38%)" stroke-width="1" opacity="0.35"/>
    <line x1="48" y1="48" x2="80.9" y2="33.4" stroke="hsl(55, 70%, 38%)" stroke-width="1" opacity="0.35"/>
  </g>
  <circle cx="48" cy="48" r="34.5" fill="url(#core-02)" stroke="hsl(45, 64%, 22%)" stroke-width="1.1"/>
  <g opacity="0.85">
    <ellipse cx="41.1" cy="77.5" rx="5.2" ry="2.1" fill="#B98A22" opacity="0.9" transform="rotate(70 41.1 77.5)"/><ellipse cx="35.3" cy="76.3" rx="5.2" ry="2.1" fill="#B98A22" opacity="0.9" transform="rotate(54 35.3 76.3)"/><ellipse cx="29.8" cy="74.3" rx="5.2" ry="2.1" fill="#B98A22" opacity="0.9" transform="rotate(38 29.8 74.3)"/><ellipse cx="24.8" cy="71.8" rx="5.2" ry="2.1" fill="#B98A22" opacity="0.9" transform="rotate(22 24.8 71.8)"/><ellipse cx="20.3" cy="68.6" rx="5.2" ry="2.1" fill="#B98A22" opacity="0.9" transform="rotate(6 20.3 68.6)"/><ellipse cx="16.6" cy="64.9" rx="5.2" ry="2.1" fill="#B98A22" opacity="0.9" transform="rotate(-10 16.6 64.9)"/>
    <ellipse cx="54.9" cy="77.5" rx="5.2" ry="2.1" fill="#B98A22" opacity="0.9" transform="rotate(-70 54.9 77.5)"/><ellipse cx="60.7" cy="76.3" rx="5.2" ry="2.1" fill="#B98A22" opacity="0.9" transform="rotate(-54 60.7 76.3)"/><ellipse cx="66.2" cy="74.3" rx="5.2" ry="2.1" fill="#B98A22" opacity="0.9" transform="rotate(-38 66.2 74.3)"/><ellipse cx="71.2" cy="71.8" rx="5.2" ry="2.1" fill="#B98A22" opacity="0.9" transform="rotate(-22 71.2 71.8)"/><ellipse cx="75.7" cy="68.6" rx="5.2" ry="2.1" fill="#B98A22" opacity="0.9" transform="rotate(-6 75.7 68.6)"/><ellipse cx="79.4" cy="64.9" rx="5.2" ry="2.1" fill="#B98A22" opacity="0.9" transform="rotate(10 79.4 64.9)"/>
  </g>
  <text x="48" y="51" text-anchor="middle" dominant-baseline="central" font-size="32" font-family="'Noto Color Emoji','Apple Color Emoji','Segoe UI Emoji',sans-serif">🥂</text>
  <path d="M 11.18 55.50 Q 11.70 57.90 14.10 58.42 Q 11.70 58.95 11.18 61.34 Q 10.65 58.95 8.26 58.42 Q 10.65 57.90 11.18 55.50 Z" fill="#FFF3C4" opacity="0.83"/>
  <path d="M 43.28 5.41 Q 43.60 6.84 45.03 7.16 Q 43.60 7.47 43.28 8.91 Q 42.97 7.47 41.53 7.16 Q 42.97 6.84 43.28 5.41 Z" fill="#FFF3C4" opacity="0.61"/>
  <path d="M 10.82 35.77 Q 11.16 37.31 12.70 37.65 Q 11.16 37.99 10.82 39.53 Q 10.48 37.99 8.94 37.65 Q 10.48 37.31 10.82 35.77 Z" fill="#FFF3C4" opacity="0.89"/>
</svg>
