<svg xmlns="http://www.w3.org/2000/svg" viewBox="0 0 96 96">
  <defs>
    <radialGradient id="rim-23" cx="35%" cy="28%" r="85%">
      <stop offset="0%" stop-color="#FFF0B8"/>
      <stop offset="45%" stop-color="hsl(60, 74%, 58%)"/>
      <stop offset="100%" stop-color="hsl(52, 70%, 28%)"/>
    </radialGradient>
    <radialGradient id="core-23" cx="50%" cy="36%" r="78%">
      <stop offset="0%" stop-color="hsl(60, 78%, 70%)"/>
      <stop offset="58%" stop-color="hsl(60, 72%, 46%)"/>
      <stop offset="100%" stop-color="hsl(54, 68%, 27%)"/>
    </radialGradient>
  </defs>
  <circle cx="48" cy="48" r="47" fill="url(#rim-23)"/>
  <circle cx="48" cy="48" r="45.4" fill="none" stroke="#4A96FF" stroke-width="2.4"/>
  <circle cx="48" cy="48" r="40" fill="none" stroke="hsl(50, 66%, 24%)" stroke-width="0.8" opacity="0.7"/>
  <g>
    <line x1="48" y1="48" x2="78.5" y2="28.9" stroke="hsl(60, 70%, 38%)" stroke-width="1" opacity="0.35"/>
    <line x1="48" y1="48" x2="84.0" y2="46.7" stroke="hsl(60, 70%, 38%)" stroke-width="1" opacity="0.35"/>
    <line x1="48" y1="48" x2="79.8" y2="64.9" stroke="hsl(60, 70%, 38%)" stroke-width="1" opacity="0.35"/>
    <line x1="48" y1="48" x2="67.1" y2="78.5" stroke="hsl(60, 70%, 38%)" stroke-width="1" opacity="0.35"/>
    <line x1="48" y1="48" x2="49.3" y2="84.0" stroke="hsl(60, 70%, 38%)" stroke-width="1" opacity="0.35"/>
    <line x1="48" y1="48" x2="31.1" y2="79.8" stroke="hsl(60, 70%, 38%)" stroke-width="1" opacity="0.35"/>
    <line x1="48" y1="48" x2="17.5" y2="67.1" stroke="hsl(60, 70%, 38%)" stroke-width="1" opacity="0.35"/>
    <line x1="48" y1="48" x2="12.0" y2="49.3" stroke="hsl(60, 70%, 38%)" stroke-width="1" opacity="0.35"/>
    <line x1="48" y1="48" x2="16.2" y2="31.1" stroke="hsl(60, 70%, 38%)" stroke-width="1" opacity="0.35"/>
    <line x1="48" y1="48" x2="28.9" y2="17.5" stroke="hsl(60, 70%, 38%)" stroke-width="1" opacity="0.35"/>
    <line x1="48" y1="48" x2="46.7" y2="12.0" stroke="hsl(60, 70%, 38%)" stroke-width="1" opacity="0.35"/>
    <line x1="48" y1="48" x2="64.9" y2="16.2" stroke="hsl(60, 70%, 38%)" stroke-width="1" opacity="0.35"/>
  </g>
  <circle cx="48" cy="48" r="34.5" fill="url(#core-23)" stroke="hsl(50, 64%, 22%)" stroke-width="1.1"/>
  <g opacity="0.85">
    <ellipse cx="41.1" cy="77.5" rx="5.2" ry="2.1" fill="#B98A22" opacity="0.9" transform="rotate(70 41.1 77.5)"/><ellipse cx="35.3" cy="76.3" rx="5.2" ry="2.1" fill="#B98A22" opacity="0.9" transform="rotate(54 35.3 76.3)"/><ellipse cx="29.8" cy="74.3" rx="5.2" ry="2.1" fill="#B98A22" opacity="0.9" transform="rotate(38 29.8 74.3)"/><ellipse cx="24.8" cy="71.8" rx="5.2" ry="2.1" fill="#B98A22" opacity="0.9" transform="rotate(22 24.8 71.8)"/><ellipse cx="20.3" cy="68.6" rx="5.2" ry="2.1" fill="#B98A22" opacity="0.9" transform="rotate(6 20.3 68.6)"/><ellipse cx="16.6" cy="64.9" rx="5.2" ry="2.1" fill="#B98A22" opacity="0.9" transform="rotate(-10 16.6 64.9)"/>
    <ellipse cx="54.9" cy="77.5" rx="5.2" ry="2.1" fill="#B98A22" opacity="0.9" transform="rotate(-70 54.9 77.5)"/><ellipse cx="60.7" cy="76.3" rx="5.2" ry="2.1" fill="#B98A22" opacity="0.9" transform="rotate(-54 60.7 76.3)"/><ellipse cx="66.2" cy="74.3" rx="5.2" ry="2.1" fill="#B98A22" opacity="0.9" transform="rotate(-38 66.2 74.3)"/><ellipse cx="71.2" cy="71.8" rx="5.2" ry="2.1" fill="#B98A22" opacity="0.9" transform="rotate(-22 71.2 71.8)"/><ellipse cx="75.7" cy="68.6" rx="5.2" ry="2.1" fill="#B98A22" opacity="0.9" transform="rotate(-6 75.7 68.6)"/><ellipse cx="79.4" cy="64.9" rx="5.2" ry="2.1" fill="#B98A22" opacity="0.9" transform="rotate(10 79.4 64.9)"/>
  </g>
  <text x="48" y="51" text-anchor="middle" dominant-baseline="central" font-size="32" font-family="'Noto Color Emoji','Apple Color Emoji','Segoe UI Emoji',sans-serif">💫</text>
  <path d="M 88.51 38.05 Q 88.96 40.09 90.99 40.54 Q 88.96 40.98 88.51 43.02 Q 88.06 40.98 86.02 40.54 Q 88.06 40.09 88.51 38.05 Z" fill="#FFF3C4" opacity="0.58"/>
  <path d="M 28.85 80.91 Q 29.43 83.53 32.05 84.10 Q 29.43 84.68 28.85 87.30 Q 28.28 84.68 25.66 84.10 Q 28.28 83.53 28.85 80.91 Z" fill="#FFF3C4" opacity="0.75"/>
  <path d="M 75.69 75.54 Q 76.17 77.75 78.38 78.23 Q 76.17 78.72 75.69 80.93 Q 75.20 78.72 72.99 78.23 Q 75.20 77.75 75.69 75.54 Z" fill="#FFF3C4" opacity="0.64"/>
  <path d="M 86.85 47.92 Q 87.15 49.25 88.47 49.54 Q 87.15 49.83 86.85 51.16 Q 86.56 49.83 85.23 49.54 Q 86.56 49.25 86.85 47.92 Z" fill="#FFF3C4" opacity="0.67"/>
  <path d="M 28.56 81.96 Q 28.93 83.63 30.61 84.00 Q 28.93 84.37 28.56 86.05 Q 28.19 84.37 26.51 84.00 Q 28.19 83.63 28.56 81.96 Z" fill="#FFF3C4" opacity="0.82"/>
</svg>
