<svg xmlns="http://www.w3.org/2000/svg" viewBox="0 0 96 96">
  <defs>
    <radialGradient id="rim-22" cx="35%" cy="28%" r="85%">
      <stop offset="0%" stop-color="#FFF0B8"/>
      <stop offset="45%" stop-color="hsl(38, 74%, 58%)"/>
      <stop offset="100%" stop-color="hsl(30, 70%, 28%)"/>
    </radialGradient>
    <radialGradient id="core-22" cx="50%" cy="36%" r="78%">
      <stop offset="0%" stop-color="hsl(38, 78%, 67%)"/>
      <stop offset="58%" stop-color="hsl(38, 72%, 46%)"/>
      <stop offset="100%" stop-color="hsl(32, 68%, 27%)"/>
    </radialGradient>
  </defs>
  <circle cx="48" cy="48" r="47" fill="url(#rim-22)"/>
  <circle cx="48" cy="48" r="45.4" fill="none" stroke="#A8A8A8" stroke-width="2.4"/>
  <circle cx="48" cy="48" r="40" fill="none" stroke="hsl(28, 66%, 24%)" stroke-width="0.8" opacity="0.7"/>
  <g>
    <line x1="48" y1="48" x2="33.9" y2="81.1" stroke="hsl(38, 70%, 38%)" stroke-width="1" opacity="0.35"/>
    <line x1="48" y1="48" x2="24.4" y2="75.2" stroke="hsl(38, 70%, 38%)" stroke-width="1" opacity="0.35"/>
    <line x1="48" y1="48" x2="17.1" y2="66.5" stroke="hsl(38, 70%, 38%)" stroke-width="1" opacity="0.35"/>
    <line x1="48" y1="48" x2="12.9" y2="56.1" stroke="hsl(38, 70%, 38%)" stroke-width="1" opacity="0.35"/>
    <line x1="48" y1="48" x2="12.1" y2="44.9" stroke="hsl(38, 70%, 38%)" stroke-width="1" opacity="0.35"/>
    <line x1="48" y1="48" x2="14.9" y2="33.9" stroke="hsl(38, 70%, 38%)" stroke-width="1" opacity="0.35"/>
    <line x1="48" y1="48" x2="20.8" y2="24.4" stroke="hsl(38, 70%, 38%)" stroke-width="1" opacity="0.35"/>
    <line x1="48" y1="48" x2="29.5" y2="17.1" stroke="hsl(38, 70%, 38%)" stroke-width="1" opacity="0.35"/>
    <line x1="48" y1="48" x2="39.9" y2="12.9" stroke="hsl(38, 70%, 38%)" stroke-width="1" opacity="0.35"/>
    <line x1="48" y1="48" x2="51.1" y2="12.1" stroke="hsl(38, 70%, 38%)" stroke-width="1" opacity="0.35"/>
    <line x1="48" y1="48" x2="62.1" y2="14.9" stroke="hsl(38, 70%, 38%)" stroke-width="1" opacity="0.35"/>
    <line x1="48" y1="48" x2="71.6" y2="20.8" stroke="hsl(38, 70%, 38%)" stroke-width="1" opacity="0.35"/>
    <line x1="48" y1="48" x2="78.9" y2="29.5" stroke="hsl(38, 70%, 38%)" stroke-width="1" opacity="0.35"/>
    <line x1="48" y1="48" x2="83.1" y2="39.9" stroke="hsl(38, 70%, 38%)" stroke-width="1" opacity="0.35"/>
    <line x1="48" y1="48" x2="83.9" y2="51.1" stroke="hsl(38, 70%, 38%)" stroke-width="1" opacity="0.35"/>
    <line x1="48" y1="48" x2="81.1" y2="62.1" stroke="hsl(38, 70%, 38%)" stroke-width="1" opacity="0.35"/>
    <line x1="48" y1="48" x2="75.2" y2="71.6" stroke="hsl(38, 70%, 38%)" stroke-width="1" opacity="0.35"/>
    <line x1="48" y1="48" x2="66.5" y2="78.9" stroke="hsl(38, 70%, 38%)" stroke-width="1" opacity="0.35"/>
    <line x1="48" y1="48" x2="56.1" y2="83.1" stroke="hsl(38, 70%, 38%)" stroke-width="1" opacity="0.35"/>
    <line x1="48" y1="48" x2="44.9" y2="83.9" stroke="hsl(38, 70%, 38%)" stroke-width="1" opacity="0.35"/>
  </g>
  <circle cx="48" cy="48" r="34.5" fill="url(#core-22)" stroke="hsl(28, 64%, 22%)" stroke-width="1.1"/>
  <g opacity="0.85">
    <ellipse cx="41.1" cy="77.5" rx="5.2" ry="2.1" fill="#B98A22" opacity="0.9" transform="rotate(70 41.1 77.5)"/><ellipse cx="35.3" cy="76.3" rx="5.2" ry="2.1" fill="#B98A22" opacity="0.9" transform="rotate(54 35.3 76.3)"/><ellipse cx="29.8" cy="74.3" rx="5.2" ry="2.1" fill="#B98A22" opacity="0.9" transform="rotate(38 29.8 74.3)"/><ellipse cx="24.8" cy="71.8" rx="5.2" ry="2.1" fill="#B98A22" opacity="0.9" transform="rotate(22 24.8 71.8)"/><ellipse cx="20.3" cy="68.6" rx="5.2" ry="2.1" fill="#B98A22" opacity="0.9" transform="rotate(6 20.3 68.6)"/><ellipse cx="16.6" cy="64.9" rx="5.2" ry="2.1" fill="#B98A22" opacity="0.9" transform="rotate(-10 16.6 64.9)"/>
    <ellipse cx="54.9" cy="77.5" rx="5.2" ry="2.1" fill="#B98A22" opacity="0.9" transform="rotate(-70 54.9 77.5)"/><ellipse cx="60.7" cy="76.3" rx="5.2" ry="2.1" fill="#B98A22" opacity="0.9" transform="rotate(-54 60.7 76.3)"/><ellipse cx="66.2" cy="74.3" rx="5.2" ry="2.1" fill="#B98A22" opacity="0.9" transform="rotate(-38 66.2 74.3)"/><ellipse cx="71.2" cy="71.8" rx="5.2" ry="2.1" fill="#B98A22" opacity="0.9" transform="rotate(-22 71.2 71.8)"/><ellipse cx="75.7" cy="68.6" rx="5.2" ry="2.1" fill="#B98A22" opacity="0.9" transform="rotate(-6 75.7 68.6)"/><ellipse cx="79.4" cy="64.9" rx="5.2" ry="2.1" fill="#B98A22" opacity="0.9" transform="rotate(10 79.4 64.9)"/>
  </g>
  <text x="48" y="51" text-anchor="middle" dominant-baseline="central" font-size="32" font-family="'Noto Color Emoji','Apple Color Emoji','Segoe UI Emoji',sans-serif">🌟</text>
  <path d="M 88.03 35.01 Q 88.50 37.12 90.61 37.59 Q 88.50 38.05 88.03 40.16 Q 87.57 38.05 85.46 37.59 Q 87.57 37.12 88.03 35.01 Z" fill="#FFF3C4" opacity="0.89"/>
  <path d="M 48.24 87.39 Q 48.64 89.23 50.48 89.63 Q 48.64 90.04 48.24 91.88 Q 47.83 90.04 45.99 89.63 Q 47.83 89.23 48.24 87.39 Z" fill="#FFF3C4" opacity="0.71"/>
  <path d="M 87.85 38.08 Q 88.40 40.60 90.92 41.15 Q 88.40 41.70 87.85 44.21 Q 87.30 41.70 84.78 41.15 Q 87.30 40.60 87.85 38.08 Z" fill="#FFF3C4" opacity="0.50"/>
</svg>
