<svg xmlns="http://www.w3.org/2000/svg" viewBox="0 0 96 96">
  <defs>
    <radialGradient id="rim-61" cx="35%" cy="28%" r="85%">
      <stop offset="0%" stop-color="#FFF0B8"/>
      <stop offset="45%" stop-color="hsl(60, 74%, 58%)"/>
      <stop offset="100%" stop-color="hsl(52, 70%, 28%)"/>
    </radialGradient>
    <radialGradient id="core-61" cx="50%" cy="36%" r="78%">
      <stop offset="0%" stop-color="hsl(60, 78%, 71%)"/>
      <stop offset="58%" stop-color="hsl(60, 72%, 46%)"/>
      <stop offset="100%" stop-color="hsl(54, 68%, 27%)"/>
    </radialGradient>
  </defs>
  <circle cx="48" cy="48" r="47" fill="url(#rim-61)"/>
  <circle cx="48" cy="48" r="45.4" fill="none" stroke="#DC3030" stroke-width="2.4"/>
  <circle cx="48" cy="48" r="40" fill="none" stroke="hsl(50, 66%, 24%)" stroke-width="0.8" opacity="0.7"/>
  <g>
    <line x1="48" y1="48" x2="53.6" y2="83.6" stroke="hsl(60, 70%, 38%)" stroke-width="1" opacity="0.35"/>
    <line x1="48" y1="48" x2="35.1" y2="81.6" stroke="hsl(60, 70%, 38%)" stroke-width="1" opacity="0.35"/>
    <line x1="48" y1="48" x2="20.0" y2="70.7" stroke="hsl(60, 70%, 38%)" stroke-width="1" opacity="0.35"/>
    <line x1="48" y1="48" x2="12.4" y2="53.6" stroke="hsl(60, 70%, 38%)" stroke-width="1" opacity="0.35"/>
    <line x1="48" y1="48" x2="14.4" y2="35.1" stroke="hsl(60, 70%, 38%)" stroke-width="1" opacity="0.35"/>
    <line x1="48" y1="48" x2="25.3" y2="20.0" stroke="hsl(60, 70%, 38%)" stroke-width="1" opacity="0.35"/>
    <line x1="48" y1="48" x2="42.4" y2="12.4" stroke="hsl(60, 70%, 38%)" stroke-width="1" opacity="0.35"/>
    <line x1="48" y1="48" x2="60.9" y2="14.4" stroke="hsl(60, 70%, 38%)" stroke-width="1" opacity="0.35"/>
    <line x1="48" y1="48" x2="76.0" y2="25.3" stroke="hsl(60, 70%, 38%)" stroke-width="1" opacity="0.35"/>
    <line x1="48" y1="48" x2="83.6" y2="42.4" stroke="hsl(60, 70%, 38%)" stroke-width="1" opacity="0.35"/>
    <line x1="48" y1="48" x2="81.6" y2="60.9" stroke="hsl(60, 70%, 38%)" stroke-width="1" opacity="0.35"/>
    <line x1="48" y1="48" x2="70.7" y2="76.0" stroke="hsl(60, 70%, 38%)" stroke-width="1" opacity="0.35"/>
  </g>
  <circle cx="48" cy="48" r="34.5" fill="url(#core-61)" stroke="hsl(50, 64%, 22%)" stroke-width="1.1"/>
  <g opacity="0.85">
    <ellipse cx="41.1" cy="77.5" rx="5.2" ry="2.1" fill="#B98A22" opacity="0.9" transform="rotate(70 41.1 77.5)"/><ellipse cx="35.3" cy="76.3" rx="5.2" ry="2.1" fill="#B98A22" opacity="0.9" transform="rotate(54 35.3 76.3)"/><ellipse cx="29.8" cy="74.3" rx="5.2" ry="2.1" fill="#B98A22" opacity="0.9" transform="rotate(38 29.8 74.3)"/><ellipse cx="24.8" cy="71.8" rx="5.2" ry="2.1" fill="#B98A22" opacity="0.9" transform="rotate(22 24.8 71.8)"/><ellipse cx="20.3" cy="68.6" rx="5.2" ry="2.1" fill="#B98A22" opacity="0.9" transform="rotate(6 20.3 68.6)"/><ellipse cx="16.6" cy="64.9" rx="5.2" ry="2.1" fill="#B98A22" opacity="0.9" transform="rotate(-10 16.6 64.9)"/>
    <ellipse cx="54.9" cy="77.5" rx="5.2" ry="2.1" fill="#B98A22" opacity="0.9" transform="rotate(-70 54.9 77.5)"/><ellipse cx="60.7" cy="76.3" rx="5.2" ry="2.1" fill="#B98A22" opacity="0.9" transform="rotate(-54 60.7 76.3)"/><ellipse cx="66.2" cy="74.3" rx="5.2" ry="2.1" fill="#B98A22" opacity="0.9" transform="rotate(-38 66.2 74.3)"/><ellipse cx="71.2" cy="71.8" rx="5.2" ry="2.1" fill="#B98A22" opacity="0.9" transform="rotate(-22 71.2 71.8)"/><ellipse cx="75.7" cy="68.6" rx="5.2" ry="2.1" fill="#B98A22" opacity="0.9" transform="rotate(-6 75.7 68.6)"/><ellipse cx="79.4" cy="64.9" rx="5.2" ry="2.1" fill="#B98A22" opacity="0.9" transform="rotate(10 79.4 64.9)"/>
  </g>
  <text x="48" y="51" text-anchor="middle" dominant-baseline="central" font-size="32" font-family="'Noto Color Emoji','Apple Color Emoji','Segoe UI Emoji',sans-serif">👑</text>
  <path d="M 8.66 40.27 Q 9.12 42.37 11.21 42.83 Q 9.12 43.29 8.66 45.38 Q 8.20 43.29 6.10 42.83 Q 8.20 42.37 8.66 40.27 Z" fill="#FFF3C4" opacity="0.51"/>
  <path d="M 70.61 79.52 Q 71.07 81.59 73.14 82.05 Q 71.07 82.51 70.61 84.58 Q 70.16 82.51 68.08 82.05 Q 70.16 81.59 70.61 79.52 Z" fill="#FFF3C4" opacity="0.69"/>
  <path d="M 75.69 15.34 Q 76.14 17.38 78.18 17.83 Q 76.14 18.28 75.69 20.32 Q 75.24 18.28 73.20 17.83 Q 75.24 17.38 75.69 15.34 Z" fill="#FFF3C4" opacity="0.82"/>
  <path d="M 8.79 61.30 Q 9.09 62.66 10.44 62.96 Q 9.09 63.26 8.79 64.61 Q 8.49 63.26 7.14 62.96 Q 8.49 62.66 8.79 61.30 Z" fill="#FFF3C4" opacity="0.64"/>
  <path d="M 77.39 70.86 Q 77.79 72.65 79.57 73.04 Q 77.79 73.43 77.39 75.22 Q 77.00 73.43 75.21 73.04 Q 77.00 72.65 77.39 70.86 Z" fill="#FFF3C4" opacity="0.58"/>
</svg>
