<svg xmlns="http://www.w3.org/2000/svg" viewBox="0 0 96 96">
  <defs>
    <radialGradient id="rim-36" cx="35%" cy="28%" r="85%">
      <stop offset="0%" stop-color="#FFF0B8"/>
      <stop offset="45%" stop-color="hsl(58, 74%, 58%)"/>
      <stop offset="100%" stop-color="hsl(50, 70%, 28%)"/>
    </radialGradient>
    <radialGradient id="core-36" cx="50%" cy="36%" r="78%">
      <stop offset="0%" stop-color="hsl(58, 78%, 67%)"/>
      <stop offset="58%" stop-color="hsl(58, 72%, 46%)"/>
      <stop offset="100%" stop-color="hsl(52, 68%, 27%)"/>
    </radialGradient>
  </defs>
  <circle cx="48" cy="48" r="47" fill="url(#rim-36)"/>
  <circle cx="48" cy="48" r="45.4" fill="none" stroke="#BA55FF" stroke-width="2.4"/>
  <circle cx="48" cy="48" r="40" fill="none" stroke="hsl(48, 66%, 24%)" stroke-width="0.8" opacity="0.7"/>
  <g>
    <line x1="48" y1="48" x2="18.9" y2="69.2" stroke="hsl(58, 70%, 38%)" stroke-width="1" opacity="0.35"/>
    <line x1="48" y1="48" x2="12.2" y2="51.8" stroke="hsl(58, 70%, 38%)" stroke-width="1" opacity="0.35"/>
    <line x1="48" y1="48" x2="15.1" y2="33.4" stroke="hsl(58, 70%, 38%)" stroke-width="1" opacity="0.35"/>
    <line x1="48" y1="48" x2="26.8" y2="18.9" stroke="hsl(58, 70%, 38%)" stroke-width="1" opacity="0.35"/>
    <line x1="48" y1="48" x2="44.2" y2="12.2" stroke="hsl(58, 70%, 38%)" stroke-width="1" opacity="0.35"/>
    <line x1="48" y1="48" x2="62.6" y2="15.1" stroke="hsl(58, 70%, 38%)" stroke-width="1" opacity="0.35"/>
    <line x1="48" y1="48" x2="77.1" y2="26.8" stroke="hsl(58, 70%, 38%)" stroke-width="1" opacity="0.35"/>
    <line x1="48" y1="48" x2="83.8" y2="44.2" stroke="hsl(58, 70%, 38%)" stroke-width="1" opacity="0.35"/>
    <line x1="48" y1="48" x2="80.9" y2="62.6" stroke="hsl(58, 70%, 38%)" stroke-width="1" opacity="0.35"/>
    <line x1="48" y1="48" x2="69.2" y2="77.1" stroke="hsl(58, 70%, 38%)" stroke-width="1" opacity="0.35"/>
    <line x1="48" y1="48" x2="51.8" y2="83.8" stroke="hsl(58, 70%, 38%)" stroke-width="1" opacity="0.35"/>
    <line x1="48" y1="48" x2="33.4" y2="80.9" stroke="hsl(58, 70%, 38%)" stroke-width="1" opacity="0.35"/>
  </g>
  <circle cx="48" cy="48" r="34.5" fill="url(#core-36)" stroke="hsl(48, 64%, 22%)" stroke-width="1.1"/>
  <g opacity="0.85">
    <ellipse cx="41.1" cy="77.5" rx="5.2" ry="2.1" fill="#B98A22" opacity="0.9" transform="rotate(70 41.1 77.5)"/><ellipse cx="35.3" cy="76.3" rx="5.2" ry="2.1" fill="#B98A22" opacity="0.9" transform="rotate(54 35.3 76.3)"/><ellipse cx="29.8" cy="74.3" rx="5.2" ry="2.1" fill="#B98A22" opacity="0.9" transform="rotate(38 29.8 74.3)"/><ellipse cx="24.8" cy="71.8" rx="5.2" ry="2.1" fill="#B98A22" opacity="0.9" transform="rotate(22 24.8 71.8)"/><ellipse cx="20.3" cy="68.6" rx="5.2" ry="2.1" fill="#B98A22" opacity="0.9" transform="rotate(6 20.3 68.6)"/><ellipse cx="16.6" cy="64.9" rx="5.2" ry="2.1" fill="#B98A22" opacity="0.9" transform="rotate(-10 16.6 64.9)"/>
    <ellipse cx="54.9" cy="77.5" rx="5.2" ry="2.1" fill="#B98A22" opacity="0.9" transform="rotate(-70 54.9 77.5)"/><ellipse cx="60.7" cy="76.3" rx="5.2" ry="2.1" fill="#B98A22" opacity="0.9" transform="rotate(-54 60.7 76.3)"/><ellipse cx="66.2" cy="74.3" rx="5.2" ry="2.1" fill="#B98A22" opacity="0.9" transform="rotate(-38 66.2 74.3)"/><ellipse cx="71.2" cy="71.8" rx="5.2" ry="2.1" fill="#B98A22" opacity="0.9" transform="rotate(-22 71.2 71.8)"/><ellipse cx="75.7" cy="68.6" rx="5.2" ry="2.1" fill="#B98A22" opacity="0.9" transform="rotate(-6 75.7 68.6)"/><ellipse cx="79.4" cy="64.9" rx="5.2" ry="2.1" fill="#B98A22" opacity="0.9" transform="rotate(10 79.4 64.9)"/>
  </g>
  <text x="48" y="51" text-anchor="middle" dominant-baseline="central" font-size="32" font-family="'Noto Color Emoji','Apple Color Emoji','Segoe UI Emoji',sans-serif">🏅</text>
  <path d="M 47.38 7.24 Q 47.84 9.37 49.97 9.84 Q 47.84 10.30 47.38 12.43 Q 46.91 10.30 44.78 9.84 Q 46.91 9.37 47.38 7.24 Z" fill="#FFF3C4" opacity="0.78"/>
  <path d="M 65.85 9.97 Q 66.20 11.56 67.79 11.91 Q 66.20 12.26 65.85 13.85 Q 65.50 12.26 63.91 11.91 Q 65.50 11.56 65.85 9.97 Z" fill="#FFF3C4" opacity="0.74"/>
  <path d="M 16.61 73.03 Q 16.95 74.58 18.49 74.92 Q 16.95 75.26 16.61 76.81 Q 16.27 75.26 14.72 74.92 Q 16.27 74.58 16.61 73.03 Z" fill="#FFF3C4" opacity="0.70"/>
  <path d="M 88.34 36.43 Q 88.79 38.48 90.83 38.93 Q 88.79 39.38 88.34 41.43 Q 87.89 39.38 85.84 38.93 Q 87.89 38.48 88.34 36.43 Z" fill="#FFF3C4" opacity="0.84"/>
  <path d="M 10.27 30.88 Q 10.62 32.44 12.18 32.79 Q 10.62 33.13 10.27 34.70 Q 9.93 33.13 8.36 32.79 Q 9.93 32.44 10.27 30.88 Z" fill="#FFF3C4" opacity="0.70"/>
</svg>
